# xmcd CD database file
#
# Track frame offsets:
#	150
#	33815
#	57630
#	73927
#	90949
#	106253
#	120697
#	138297
#	156747
#
# Disc length: 2343 seconds
#
# Revision: 0
# Processed by: cddbd v1.5.1PL0 Copyright (c) Steve Scherf et al.
# Submitted via: CDex 1.51
#
DISCID=7b092509
DTITLE=Juan Meguro - Tengu
DYEAR=1999
DGENRE=Jazz
TTITLE0=Love For Sale
TTITLE1=Salad Dressing
TTITLE2=Teru
TTITLE3=Thousand Paper Cranes
TTITLE4=2 - 7 - 8
TTITLE5=Flowers In A Book
TTITLE6=J. Rex (Take 2)
TTITLE7=Still
TTITLE8=J. Rex (Take 1)
EXTD=YEAR: 1999
EXTT0=
EXTT1=
EXTT2=
EXTT3=
EXTT4=
EXTT5=
EXTT6=
EXTT7=
EXTT8=
PLAYORDER=
